<svg width="40" height="40" viewBox="0 0 40 40" fill="none" xmlns="http://www.w3.org/2000/svg">
<path d="M20 0C16.0444 0 12.1776 1.17298 8.8886 3.37061C5.59962 5.56823 3.03617 8.69181 1.52242 12.3463C0.00866534 16.0009 -0.387401 20.0222 0.384303 23.9018C1.15601 27.7814 3.06082 31.3451 5.85787 34.1421C8.65492 36.9392 12.2186 38.844 16.0982 39.6157C19.9778 40.3874 23.9991 39.9913 27.6537 38.4776C31.3082 36.9638 34.4318 34.4004 36.6294 31.1114C38.827 27.8224 40 23.9556 40 20C39.9938 14.6976 37.8846 9.61412 34.1353 5.86474C30.3859 2.11536 25.3024 0.00622716 20 0ZM34.6549 10.1804L21.1765 17.9627V2.39216C23.8691 2.57332 26.4842 3.3696 28.8209 4.71978C31.1575 6.06995 33.1533 7.93804 34.6549 10.1804ZM18.8235 2.39216V19.3216L4.16471 27.7843C2.88631 25.1834 2.26813 22.3078 2.36478 19.4113C2.46143 16.5148 3.26994 13.6868 4.71887 11.1769C6.16781 8.66704 8.21258 6.55265 10.6725 5.02052C13.1325 3.4884 15.9319 2.58569 18.8235 2.39216ZM20 37.647C17.1024 37.6458 14.2497 36.931 11.6938 35.5658C9.13788 34.2007 6.95747 32.2272 5.34511 29.8196L35.8353 12.2157C37.1576 14.906 37.7728 17.8888 37.6229 20.8827C37.4729 23.8767 36.5628 26.7831 34.9783 29.3278C33.3937 31.8725 31.1871 33.9716 28.5665 35.4272C25.9459 36.8827 22.9977 37.6467 20 37.647Z" fill="white"/>
</svg>
