<svg width="50" height="50" viewBox="0 0 50 50" fill="none" xmlns="http://www.w3.org/2000/svg">
<path d="M20.8333 41.6667H12.5V8.33333H27.0833V18.75H37.5V25.2083L41.6667 21.0417V16.6667L29.1667 4.16666H12.5C10.2083 4.16666 8.33334 6.04166 8.33334 8.33333V41.6667C8.33334 43.9583 10.2083 45.8333 12.5 45.8333H20.8333V41.6667ZM42.0833 27.0833C42.2917 27.0833 42.7083 27.2917 42.9167 27.5L45.625 30.2083C46.0417 30.625 46.0417 31.4583 45.625 31.875L43.5417 33.9583L39.1667 29.5833L41.25 27.5C41.4583 27.2917 41.6667 27.0833 42.0833 27.0833ZM42.0833 35.2083L29.375 47.9167H25V43.5417L37.7083 30.8333L42.0833 35.2083Z" fill="white"/>
</svg>
