<svg width="50" height="50" viewBox="0 0 50 50" fill="none" xmlns="http://www.w3.org/2000/svg">
<path d="M12.5 4.16669C10.2083 4.16669 8.33331 6.04169 8.33331 8.33335V41.6667C8.33331 43.9584 10.2083 45.8334 12.5 45.8334H20.8333V41.875L41.6666 21.0417V16.6667L29.1666 4.16669H12.5ZM27.0833 7.29169L38.5416 18.75H27.0833V7.29169ZM41.875 27.0834C41.6666 27.0834 41.25 27.2917 41.0416 27.5L38.9583 29.5834L43.3333 33.9584L45.4166 31.875C45.8333 31.4584 45.8333 30.625 45.4166 30.2084L42.7083 27.5C42.5 27.2917 42.2916 27.0834 41.875 27.0834ZM37.7083 30.8334L25 43.5417V47.9167H29.375L42.0833 35.2084L37.7083 30.8334Z" fill="white"/>
</svg>
