<svg width="40" height="40" viewBox="0 0 40 40" fill="none" xmlns="http://www.w3.org/2000/svg">
<path d="M20 0C16.0444 0 12.1776 1.17298 8.8886 3.37061C5.59962 5.56823 3.03617 8.69181 1.52242 12.3463C0.00866534 16.0009 -0.387401 20.0222 0.384303 23.9018C1.15601 27.7814 3.06082 31.3451 5.85787 34.1421C8.65492 36.9392 12.2186 38.844 16.0982 39.6157C19.9778 40.3874 23.9991 39.9913 27.6537 38.4776C31.3082 36.9638 34.4318 34.4004 36.6294 31.1114C38.827 27.8224 40 23.9556 40 20C39.9938 14.6976 37.8846 9.61412 34.1353 5.86474C30.3859 2.11536 25.3024 0.00622716 20 0ZM8.90981 33.7255C10.0604 31.8123 11.6863 30.2293 13.6296 29.1303C15.5729 28.0313 17.7675 27.4538 20 27.4538C22.2325 27.4538 24.4271 28.0313 26.3704 29.1303C28.3137 30.2293 29.9396 31.8123 31.0902 33.7255C27.9537 36.2689 24.0382 37.6569 20 37.6569C15.9618 37.6569 12.0464 36.2689 8.90981 33.7255ZM13.3333 18.4314C13.3333 17.1128 13.7243 15.8239 14.4569 14.7276C15.1894 13.6312 16.2306 12.7768 17.4488 12.2722C18.667 11.7676 20.0074 11.6356 21.3006 11.8928C22.5938 12.15 23.7817 12.785 24.714 13.7173C25.6464 14.6497 26.2813 15.8376 26.5386 17.1308C26.7958 18.424 26.6638 19.7644 26.1592 20.9826C25.6546 22.2008 24.8001 23.242 23.7038 23.9745C22.6075 24.707 21.3185 25.098 20 25.098C18.2319 25.098 16.5362 24.3957 15.286 23.1454C14.0357 21.8952 13.3333 20.1995 13.3333 18.4314ZM32.8451 32.0863C30.9966 29.212 28.2336 27.0445 25.002 25.9333C26.6134 24.86 27.8367 23.2967 28.491 21.4744C29.1452 19.6522 29.1958 17.6677 28.6351 15.8145C28.0744 13.9613 26.9323 12.3377 25.3776 11.1838C23.8229 10.0299 21.9381 9.40684 20.002 9.40684C18.0658 9.40684 16.181 10.0299 14.6263 11.1838C13.0716 12.3377 11.9295 13.9613 11.3688 15.8145C10.8081 17.6677 10.8587 19.6522 11.513 21.4744C12.1672 23.2967 13.3905 24.86 15.002 25.9333C11.7703 27.0445 9.00732 29.212 7.15883 32.0863C4.79575 29.5786 3.21849 26.434 2.62166 23.0404C2.02482 19.6468 2.43452 16.1527 3.80021 12.9893C5.16591 9.82581 7.42783 7.13136 10.3069 5.23836C13.186 3.34536 16.5563 2.33663 20.002 2.33663C23.4476 2.33663 26.8179 3.34536 29.697 5.23836C32.5761 7.13136 34.838 9.82581 36.2037 12.9893C37.5694 16.1527 37.9791 19.6468 37.3823 23.0404C36.7854 26.434 35.2082 29.5786 32.8451 32.0863Z" fill="white"/>
</svg>
