<svg width="58" height="58" viewBox="0 0 58 58" fill="none" xmlns="http://www.w3.org/2000/svg">
<g filter="url(#filter0_d_167_184)">
<circle cx="29" cy="25" r="25" fill="white" fill-opacity="0.7" shape-rendering="crispEdges"/>
</g>
<path d="M14.3333 27.6667V35C14.3333 35.9725 14.7196 36.9051 15.4073 37.5927C16.0949 38.2804 17.0275 38.6667 18 38.6667H19.8333C20.8058 38.6667 21.7384 38.2804 22.426 37.5927C23.1137 36.9051 23.5 35.9725 23.5 35V31.3333C23.5 30.3609 23.1137 29.4283 22.426 28.7406C21.7384 28.053 20.8058 27.6667 19.8333 27.6667H14.3333ZM14.3333 27.6667V22.1667C14.3333 17.8895 18.7333 9.33334 29 9.33334C39.2666 9.33334 43.6666 17.8895 43.6666 22.1667V27.6667M43.6666 27.6667V35C43.6666 35.9725 43.2803 36.9051 42.5927 37.5927C41.9051 38.2804 40.9724 38.6667 40 38.6667H38.1666C37.1942 38.6667 36.2616 38.2804 35.5739 37.5927C34.8863 36.9051 34.5 35.9725 34.5 35V31.3333C34.5 30.3609 34.8863 29.4283 35.5739 28.7406C36.2616 28.053 37.1942 27.6667 38.1666 27.6667H43.6666Z" stroke="#787878" stroke-width="2" stroke-linecap="round" stroke-linejoin="round"/>
<defs>
<filter id="filter0_d_167_184" x="0" y="0" width="58" height="58" filterUnits="userSpaceOnUse" color-interpolation-filters="sRGB">
<feFlood flood-opacity="0" result="BackgroundImageFix"/>
<feColorMatrix in="SourceAlpha" type="matrix" values="0 0 0 0 0 0 0 0 0 0 0 0 0 0 0 0 0 0 127 0" result="hardAlpha"/>
<feOffset dy="4"/>
<feGaussianBlur stdDeviation="2"/>
<feComposite in2="hardAlpha" operator="out"/>
<feColorMatrix type="matrix" values="0 0 0 0 0 0 0 0 0 0 0 0 0 0 0 0 0 0 0.25 0"/>
<feBlend mode="normal" in2="BackgroundImageFix" result="effect1_dropShadow_167_184"/>
<feBlend mode="normal" in="SourceGraphic" in2="effect1_dropShadow_167_184" result="shape"/>
</filter>
</defs>
</svg>
