<svg width="23" height="28" viewBox="0 0 23 28" fill="none" xmlns="http://www.w3.org/2000/svg">
<g clip-path="url(#clip0_393_36)">
<path d="M7.80357 1.3125C7.80357 0.585156 7.25424 0 6.57143 0C5.88862 0 5.33929 0.585156 5.33929 1.3125V3.5H3.28571C1.47344 3.5 0 5.06953 0 7V7.875V10.5V24.5C0 26.4305 1.47344 28 3.28571 28H19.7143C21.5266 28 23 26.4305 23 24.5V10.5V7.875V7C23 5.06953 21.5266 3.5 19.7143 3.5H17.6607V1.3125C17.6607 0.585156 17.1114 0 16.4286 0C15.7458 0 15.1964 0.585156 15.1964 1.3125V3.5H7.80357V1.3125ZM2.46429 10.5H20.5357V24.5C20.5357 24.9813 20.1661 25.375 19.7143 25.375H3.28571C2.83393 25.375 2.46429 24.9813 2.46429 24.5V10.5Z" fill="#BDBDBD"/>
</g>
<defs>
<clipPath id="clip0_393_36">
<rect width="23" height="28" fill="white"/>
</clipPath>
</defs>
</svg>
