<svg width="58" height="58" viewBox="0 0 58 58" fill="none" xmlns="http://www.w3.org/2000/svg">
<g filter="url(#filter0_d_167_186)">
<circle cx="29" cy="25" r="25" fill="white" fill-opacity="0.7" shape-rendering="crispEdges"/>
</g>
<path d="M13.25 19.75V33.75C13.25 34.6783 13.6187 35.5685 14.2751 36.2249C14.9315 36.8813 15.8217 37.25 16.75 37.25H41.25C42.1783 37.25 43.0685 36.8813 43.7249 36.2249C44.3813 35.5685 44.75 34.6783 44.75 33.75V19.75M13.25 19.75V16.25C13.25 15.3217 13.6187 14.4315 14.2751 13.7751C14.9315 13.1187 15.8217 12.75 16.75 12.75H41.25C42.1783 12.75 43.0685 13.1187 43.7249 13.7751C44.3813 14.4315 44.75 15.3217 44.75 16.25V19.75M13.25 19.75H44.75M20.25 26.75H29" stroke="#787878" stroke-width="2" stroke-linecap="round" stroke-linejoin="round"/>
<defs>
<filter id="filter0_d_167_186" x="0" y="0" width="58" height="58" filterUnits="userSpaceOnUse" color-interpolation-filters="sRGB">
<feFlood flood-opacity="0" result="BackgroundImageFix"/>
<feColorMatrix in="SourceAlpha" type="matrix" values="0 0 0 0 0 0 0 0 0 0 0 0 0 0 0 0 0 0 127 0" result="hardAlpha"/>
<feOffset dy="4"/>
<feGaussianBlur stdDeviation="2"/>
<feComposite in2="hardAlpha" operator="out"/>
<feColorMatrix type="matrix" values="0 0 0 0 0 0 0 0 0 0 0 0 0 0 0 0 0 0 0.25 0"/>
<feBlend mode="normal" in2="BackgroundImageFix" result="effect1_dropShadow_167_186"/>
<feBlend mode="normal" in="SourceGraphic" in2="effect1_dropShadow_167_186" result="shape"/>
</filter>
</defs>
</svg>
