<svg width="50" height="50" viewBox="0 0 50 50" fill="none" xmlns="http://www.w3.org/2000/svg">
<path d="M19.5313 42.1875C19.5313 42.9601 19.3022 43.7153 18.8729 44.3577C18.4437 45.0001 17.8336 45.5007 17.1199 45.7964C16.4061 46.0921 15.6207 46.1694 14.8629 46.0187C14.1052 45.868 13.4092 45.4959 12.8629 44.9496C12.3166 44.4033 11.9445 43.7073 11.7938 42.9496C11.6431 42.1918 11.7204 41.4064 12.0161 40.6926C12.3118 39.9789 12.8124 39.3688 13.4548 38.9396C14.0972 38.5103 14.8524 38.2812 15.625 38.2812C16.661 38.2812 17.6546 38.6928 18.3871 39.4254C19.1197 40.1579 19.5313 41.1515 19.5313 42.1875ZM35.9375 38.2812C35.1649 38.2812 34.4097 38.5103 33.7673 38.9396C33.1249 39.3688 32.6243 39.9789 32.3286 40.6926C32.0329 41.4064 31.9556 42.1918 32.1063 42.9496C32.257 43.7073 32.6291 44.4033 33.1754 44.9496C33.7217 45.4959 34.4177 45.868 35.1754 46.0187C35.9332 46.1694 36.7186 46.0921 37.4324 45.7964C38.1461 45.5007 38.7562 45.0001 39.1854 44.3577C39.6147 43.7153 39.8438 42.9601 39.8438 42.1875C39.8438 41.1515 39.4322 40.1579 38.6996 39.4254C37.9671 38.6928 36.9735 38.2812 35.9375 38.2812ZM45.9902 14.752L40.6602 32.0762C40.3199 33.1965 39.6274 34.1773 38.6855 34.8729C37.7436 35.5685 36.6025 35.9418 35.4316 35.9375H16.1973C15.0096 35.9336 13.8551 35.545 12.9069 34.8299C11.9586 34.1147 11.2677 33.1116 10.9375 31.9707L4.25977 8.59375H2.34375C1.72215 8.59375 1.12601 8.34682 0.686469 7.90728C0.24693 7.46774 0 6.8716 0 6.25C0 5.6284 0.24693 5.03226 0.686469 4.59272C1.12601 4.15318 1.72215 3.90625 2.34375 3.90625H4.84766C5.69598 3.90887 6.52059 4.18649 7.19777 4.69746C7.87496 5.20843 8.3682 5.92519 8.60352 6.74023L10.0273 11.7188H43.75C44.1168 11.7187 44.4785 11.8048 44.806 11.97C45.1334 12.1352 45.4176 12.375 45.6355 12.6701C45.8534 12.9651 45.999 13.3072 46.0606 13.6688C46.1222 14.0304 46.0981 14.4014 45.9902 14.752ZM40.5762 16.4062H11.3652L15.4453 30.6836C15.492 30.8469 15.5907 30.9906 15.7264 31.0928C15.8621 31.195 16.0274 31.2502 16.1973 31.25H35.4316C35.5989 31.2503 35.7618 31.197 35.8964 31.0979C36.0311 30.9987 36.1304 30.859 36.1797 30.6992L40.5762 16.4062Z" fill="white"/>
<path d="M11 16H41L36 31.5H15L11 16Z" fill="white"/>
</svg>
