<svg width="50" height="50" viewBox="0 0 50 50" fill="none" xmlns="http://www.w3.org/2000/svg">
<path d="M30.8333 16.6666L33.3333 19.1666L19.1667 33.3333L16.6667 30.8333L30.8333 16.6666ZM8.33332 8.33331H41.6667C43.9792 8.33331 45.8333 10.1875 45.8333 12.5V20.8333C44.7283 20.8333 43.6684 21.2723 42.887 22.0537C42.1056 22.8351 41.6667 23.8949 41.6667 25C41.6667 26.105 42.1056 27.1649 42.887 27.9463C43.6684 28.7277 44.7283 29.1666 45.8333 29.1666V37.5C45.8333 39.8125 43.9792 41.6666 41.6667 41.6666H8.33332C7.22825 41.6666 6.16845 41.2277 5.38704 40.4463C4.60564 39.6649 4.16666 38.605 4.16666 37.5V29.1666C6.47916 29.1666 8.33332 27.3125 8.33332 25C8.33332 23.8949 7.89434 22.8351 7.11294 22.0537C6.33153 21.2723 5.27173 20.8333 4.16666 20.8333V12.5C4.16666 11.3949 4.60564 10.3351 5.38704 9.5537C6.16845 8.7723 7.22825 8.33331 8.33332 8.33331ZM8.33332 12.5V17.7916C9.59932 18.5216 10.6507 19.5722 11.3818 20.8376C12.1128 22.103 12.4977 23.5386 12.4977 25C12.4977 26.4614 12.1128 27.897 11.3818 29.1624C10.6507 30.4278 9.59932 31.4783 8.33332 32.2083V37.5H41.6667V32.2083C40.4007 31.4783 39.3493 30.4278 38.6182 29.1624C37.8872 27.897 37.5023 26.4614 37.5023 25C37.5023 23.5386 37.8872 22.103 38.6182 20.8376C39.3493 19.5722 40.4007 18.5216 41.6667 17.7916V12.5H8.33332ZM19.7917 16.6666C21.5208 16.6666 22.9167 18.0625 22.9167 19.7916C22.9167 21.5208 21.5208 22.9166 19.7917 22.9166C18.0625 22.9166 16.6667 21.5208 16.6667 19.7916C16.6667 18.0625 18.0625 16.6666 19.7917 16.6666ZM30.2083 27.0833C31.9375 27.0833 33.3333 28.4791 33.3333 30.2083C33.3333 31.9375 31.9375 33.3333 30.2083 33.3333C28.4792 33.3333 27.0833 31.9375 27.0833 30.2083C27.0833 28.4791 28.4792 27.0833 30.2083 27.0833Z" fill="white"/>
</svg>
