<svg width="50" height="50" viewBox="0 0 50 50" fill="none" xmlns="http://www.w3.org/2000/svg">
<path d="M8.33329 8.33331C7.22822 8.33331 6.16842 8.7723 5.38701 9.5537C4.60561 10.3351 4.16663 11.3949 4.16663 12.5V20.8333C5.27169 20.8333 6.3315 21.2723 7.1129 22.0537C7.89431 22.8351 8.33329 23.8949 8.33329 25C8.33329 26.105 7.89431 27.1649 7.1129 27.9463C6.3315 28.7277 5.27169 29.1666 4.16663 29.1666V37.5C4.16663 38.605 4.60561 39.6649 5.38701 40.4463C6.16842 41.2277 7.22822 41.6666 8.33329 41.6666H41.6666C42.7717 41.6666 43.8315 41.2277 44.6129 40.4463C45.3943 39.6649 45.8333 38.605 45.8333 37.5V29.1666C44.7282 29.1666 43.6684 28.7277 42.887 27.9463C42.1056 27.1649 41.6666 26.105 41.6666 25C41.6666 23.8949 42.1056 22.8351 42.887 22.0537C43.6684 21.2723 44.7282 20.8333 45.8333 20.8333V12.5C45.8333 11.3949 45.3943 10.3351 44.6129 9.5537C43.8315 8.7723 42.7717 8.33331 41.6666 8.33331H8.33329ZM32.2916 14.5833L35.4166 17.7083L17.7083 35.4166L14.5833 32.2916L32.2916 14.5833ZM18.3541 14.6666C20.3958 14.6666 22.0416 16.3125 22.0416 18.3541C22.0416 19.3321 21.6531 20.2701 20.9616 20.9616C20.27 21.6531 19.3321 22.0416 18.3541 22.0416C16.3125 22.0416 14.6666 20.3958 14.6666 18.3541C14.6666 17.3762 15.0551 16.4382 15.7467 15.7467C16.4382 15.0551 17.3761 14.6666 18.3541 14.6666ZM31.6458 27.9583C33.6875 27.9583 35.3333 29.6041 35.3333 31.6458C35.3333 32.6238 34.9448 33.5617 34.2533 34.2533C33.5617 34.9448 32.6238 35.3333 31.6458 35.3333C29.6041 35.3333 27.9583 33.6875 27.9583 31.6458C27.9583 30.6678 28.3468 29.7299 29.0383 29.0384C29.7299 28.3468 30.6678 27.9583 31.6458 27.9583Z" fill="white"/>
</svg>
