<svg width="75" height="45" viewBox="0 0 75 45" fill="none" xmlns="http://www.w3.org/2000/svg">
<rect width="75" height="45" rx="5" fill="white"/>
<path d="M13.2912 29V15.9091H21.8054V17.897H15.6626V21.451H21.3643V23.4389H15.6626V27.0121H21.8565V29H13.2912ZM27.766 29.1726C26.9947 29.1726 26.3043 28.9744 25.695 28.5781C25.0856 28.1818 24.604 27.6065 24.2504 26.8523C23.8967 26.098 23.7198 25.1818 23.7198 24.1037C23.7198 23.0128 23.8988 22.0923 24.2567 21.3423C24.619 20.5881 25.1069 20.0192 25.7205 19.6357C26.3342 19.2479 27.0181 19.054 27.7724 19.054C28.3477 19.054 28.8207 19.152 29.1914 19.348C29.5621 19.5398 29.8562 19.772 30.0735 20.0447C30.2908 20.3132 30.4592 20.5668 30.5785 20.8054H30.6744V15.9091H32.9947V29H30.7191V27.4531H30.5785C30.4592 27.6918 30.2866 27.9453 30.0607 28.2138C29.8349 28.478 29.5366 28.7038 29.1658 28.8913C28.7951 29.0788 28.3285 29.1726 27.766 29.1726ZM28.4116 27.2741C28.9016 27.2741 29.3192 27.142 29.6644 26.8778C30.0096 26.6094 30.2717 26.2365 30.4506 25.7592C30.6296 25.282 30.7191 24.7259 30.7191 24.0909C30.7191 23.456 30.6296 22.9041 30.4506 22.4354C30.2759 21.9666 30.016 21.6023 29.6708 21.3423C29.3299 21.0824 28.9102 20.9524 28.4116 20.9524C27.896 20.9524 27.4656 21.0866 27.1204 21.3551C26.7752 21.6236 26.5153 21.9943 26.3406 22.4673C26.1658 22.9403 26.0785 23.4815 26.0785 24.0909C26.0785 24.7045 26.1658 25.2521 26.3406 25.7337C26.5195 26.2109 26.7816 26.5881 27.1268 26.8651C27.4762 27.1378 27.9045 27.2741 28.4116 27.2741ZM35.4604 29V19.1818H37.7743V29H35.4604ZM36.6238 17.7884C36.2573 17.7884 35.9419 17.6669 35.6777 17.424C35.4135 17.1768 35.2814 16.8807 35.2814 16.5355C35.2814 16.1861 35.4135 15.8899 35.6777 15.647C35.9419 15.3999 36.2573 15.2763 36.6238 15.2763C36.9945 15.2763 37.3098 15.3999 37.5698 15.647C37.834 15.8899 37.9661 16.1861 37.9661 16.5355C37.9661 16.8807 37.834 17.1768 37.5698 17.424C37.3098 17.6669 36.9945 17.7884 36.6238 17.7884ZM45.0565 19.1818V20.9716H39.4123V19.1818H45.0565ZM40.8058 16.8295H43.1197V26.0469C43.1197 26.358 43.1665 26.5966 43.2603 26.7628C43.3583 26.9247 43.4862 27.0355 43.6438 27.0952C43.8015 27.1548 43.9762 27.1847 44.168 27.1847C44.3129 27.1847 44.445 27.174 44.5643 27.1527C44.6879 27.1314 44.7816 27.1122 44.8455 27.0952L45.2354 28.9041C45.1119 28.9467 44.935 28.9936 44.7049 29.0447C44.479 29.0959 44.2021 29.1257 43.8739 29.1342C43.2944 29.1513 42.7724 29.0639 42.3079 28.8722C41.8434 28.6761 41.4748 28.3736 41.2021 27.9645C40.9336 27.5554 40.8015 27.044 40.8058 26.4304V16.8295ZM49.8169 29.1982C49.1948 29.1982 48.6344 29.0874 48.1358 28.8658C47.6415 28.6399 47.2495 28.3075 46.9597 27.8686C46.6742 27.4297 46.5314 26.8885 46.5314 26.245C46.5314 25.6911 46.6337 25.233 46.8382 24.8707C47.0428 24.5085 47.3219 24.2188 47.6756 24.0014C48.0293 23.7841 48.4277 23.62 48.8709 23.5092C49.3184 23.3942 49.7807 23.3111 50.258 23.2599C50.8333 23.2003 51.2999 23.147 51.6578 23.1001C52.0158 23.049 52.2757 22.9723 52.4377 22.87C52.6039 22.7635 52.687 22.5994 52.687 22.3778V22.3395C52.687 21.858 52.5442 21.4851 52.2587 21.2209C51.9732 20.9567 51.562 20.8246 51.025 20.8246C50.4583 20.8246 50.0087 20.9482 49.6763 21.1953C49.3482 21.4425 49.1266 21.7344 49.0115 22.071L46.851 21.7642C47.0215 21.1676 47.3027 20.669 47.6948 20.2685C48.0868 19.8636 48.5662 19.5611 49.133 19.3608C49.6998 19.1562 50.3262 19.054 51.0123 19.054C51.4853 19.054 51.9561 19.1094 52.4249 19.2202C52.8936 19.331 53.3219 19.5142 53.7097 19.7699C54.0975 20.0213 54.4086 20.3643 54.6429 20.799C54.8816 21.2337 55.0009 21.777 55.0009 22.429V29H52.7765V27.6513H52.6998C52.5591 27.924 52.361 28.1797 52.1053 28.4183C51.8539 28.6527 51.5364 28.8423 51.1529 28.9872C50.7736 29.1278 50.3283 29.1982 49.8169 29.1982ZM50.4178 27.4979C50.8823 27.4979 51.285 27.4062 51.6259 27.223C51.9668 27.0355 52.2289 26.7884 52.4121 26.4815C52.5996 26.1747 52.6934 25.8402 52.6934 25.478V24.321C52.6209 24.3807 52.4973 24.4361 52.3226 24.4872C52.1522 24.5384 51.9604 24.5831 51.7473 24.6214C51.5343 24.6598 51.3233 24.6939 51.1145 24.7237C50.9057 24.7536 50.7246 24.7791 50.5712 24.8004C50.226 24.8473 49.9171 24.924 49.6444 25.0305C49.3716 25.1371 49.1564 25.2862 48.9988 25.478C48.8411 25.6655 48.7623 25.9084 48.7623 26.2067C48.7623 26.6328 48.9178 26.9545 49.2289 27.1719C49.54 27.3892 49.9363 27.4979 50.4178 27.4979ZM57.3276 29V19.1818H59.5712V20.8182H59.6735C59.8525 20.2514 60.1593 19.8146 60.5939 19.5078C61.0328 19.1967 61.5336 19.0412 62.0961 19.0412C62.2239 19.0412 62.3667 19.0476 62.5243 19.0604C62.6863 19.0689 62.8205 19.0838 62.927 19.1051V21.2337C62.829 21.1996 62.6735 21.1697 62.4604 21.1442C62.2516 21.1143 62.0492 21.0994 61.8532 21.0994C61.4313 21.0994 61.052 21.1911 60.7154 21.3743C60.383 21.5533 60.1209 21.8026 59.9292 22.1222C59.7374 22.4418 59.6415 22.8104 59.6415 23.228V29H57.3276Z" fill="#722017"/>
</svg>
