<svg width="20" height="19" viewBox="0 0 20 19" fill="none" xmlns="http://www.w3.org/2000/svg">
<ellipse cx="9.99512" cy="9.63157" rx="9.32843" ry="9.26316" fill="white" fill-opacity="0.7"/>
<path d="M4.5224 10.6196V13.3368C4.5224 13.6972 4.66655 14.0427 4.92313 14.2975C5.17971 14.5523 5.52771 14.6954 5.89057 14.6954H6.57465C6.93752 14.6954 7.28552 14.5523 7.5421 14.2975C7.79868 14.0427 7.94282 13.6972 7.94282 13.3368V11.9782C7.94282 11.6179 7.79868 11.2724 7.5421 11.0176C7.28552 10.7628 6.93752 10.6196 6.57465 10.6196H4.5224ZM4.5224 10.6196V8.58175C4.5224 6.99694 6.1642 3.82666 9.99508 3.82666C13.826 3.82666 15.4678 6.99694 15.4678 8.58175V10.6196M15.4678 10.6196V13.3368C15.4678 13.6972 15.3236 14.0427 15.067 14.2975C14.8104 14.5523 14.4625 14.6954 14.0996 14.6954H13.4155C13.0526 14.6954 12.7046 14.5523 12.4481 14.2975C12.1915 14.0427 12.0473 13.6972 12.0473 13.3368V11.9782C12.0473 11.6179 12.1915 11.2724 12.4481 11.0176C12.7046 10.7628 13.0526 10.6196 13.4155 10.6196H15.4678Z" stroke="black" stroke-width="2" stroke-linecap="round" stroke-linejoin="round"/>
</svg>
