<svg width="50" height="50" viewBox="0 0 50 50" fill="none" xmlns="http://www.w3.org/2000/svg">
<path d="M12.5 39.5834H18.75V27.0834H31.25V39.5834H37.5V20.8334L25 11.4584L12.5 20.8334V39.5834ZM12.5 43.75C11.3542 43.75 10.3736 43.3424 9.55834 42.5271C8.74168 41.7104 8.33334 40.7292 8.33334 39.5834V20.8334C8.33334 20.1736 8.48126 19.5486 8.77709 18.9584C9.07154 18.3681 9.47918 17.882 10 17.5L22.5 8.12502C22.882 7.84724 23.2813 7.63891 23.6979 7.50002C24.1146 7.36113 24.5486 7.29169 25 7.29169C25.4514 7.29169 25.8854 7.36113 26.3021 7.50002C26.7188 7.63891 27.1181 7.84724 27.5 8.12502L40 17.5C40.5208 17.882 40.9292 18.3681 41.225 18.9584C41.5195 19.5486 41.6667 20.1736 41.6667 20.8334V39.5834C41.6667 40.7292 41.259 41.7104 40.4438 42.5271C39.6271 43.3424 38.6458 43.75 37.5 43.75H27.0833V31.25H22.9167V43.75H12.5Z" fill="white"/>
</svg>
