<svg width="50" height="50" viewBox="0 0 50 50" fill="none" xmlns="http://www.w3.org/2000/svg">
<path d="M12.5 43.75C11.3542 43.75 10.3736 43.3424 9.55833 42.5271C8.74167 41.7104 8.33333 40.7292 8.33333 39.5833V20.8333C8.33333 20.1736 8.48125 19.5486 8.77708 18.9583C9.07153 18.3681 9.47917 17.8819 10 17.5L22.5 8.125C22.8819 7.84722 23.2813 7.63889 23.6979 7.5C24.1146 7.36111 24.5486 7.29166 25 7.29166C25.4514 7.29166 25.8854 7.36111 26.3021 7.5C26.7188 7.63889 27.1181 7.84722 27.5 8.125L40 17.5C40.5208 17.8819 40.9292 18.3681 41.225 18.9583C41.5194 19.5486 41.6667 20.1736 41.6667 20.8333V39.5833C41.6667 40.7292 41.259 41.7104 40.4438 42.5271C39.6271 43.3424 38.6458 43.75 37.5 43.75H29.1667V29.1667H20.8333V43.75H12.5Z" fill="white"/>
</svg>
