<svg width="32" height="32" viewBox="0 0 32 32" fill="none" xmlns="http://www.w3.org/2000/svg">
<path d="M14.4 11.2H17.6V8H14.4M16 28.8C8.944 28.8 3.2 23.056 3.2 16C3.2 8.944 8.944 3.2 16 3.2C23.056 3.2 28.8 8.944 28.8 16C28.8 23.056 23.056 28.8 16 28.8ZM16 0C13.8989 0 11.8183 0.413852 9.87706 1.21793C7.93586 2.022 6.17203 3.20055 4.68629 4.68629C1.68571 7.68687 0 11.7565 0 16C0 20.2435 1.68571 24.3131 4.68629 27.3137C6.17203 28.7994 7.93586 29.978 9.87706 30.7821C11.8183 31.5861 13.8989 32 16 32C20.2435 32 24.3131 30.3143 27.3137 27.3137C30.3143 24.3131 32 20.2435 32 16C32 13.8989 31.5861 11.8183 30.7821 9.87706C29.978 7.93586 28.7994 6.17203 27.3137 4.68629C25.828 3.20055 24.0641 2.022 22.1229 1.21793C20.1817 0.413852 18.1012 0 16 0ZM14.4 24H17.6V14.4H14.4V24Z" fill="black"/>
</svg>
