<svg width="18" height="25" viewBox="0 0 18 25" fill="none" xmlns="http://www.w3.org/2000/svg">
<mask id="path-1-inside-1_367_92" fill="white">
<path fill-rule="evenodd" clip-rule="evenodd" d="M15.9498 14.8674C17.2307 13.2969 18 11.2846 18 9.09091C18 4.07014 13.9706 0 9 0C4.02944 0 0 4.07014 0 9.09091C0 11.2846 0.769256 13.2969 2.05016 14.8674L9 25L15.9498 14.8674Z"/>
</mask>
<path fill-rule="evenodd" clip-rule="evenodd" d="M15.9498 14.8674C17.2307 13.2969 18 11.2846 18 9.09091C18 4.07014 13.9706 0 9 0C4.02944 0 0 4.07014 0 9.09091C0 11.2846 0.769256 13.2969 2.05016 14.8674L9 25L15.9498 14.8674Z" fill="#F64646"/>
<path d="M15.9498 14.8674L15.1749 14.2354L15.1487 14.2676L15.1252 14.3018L15.9498 14.8674ZM2.05016 14.8674L2.87482 14.3018L2.85134 14.2676L2.8251 14.2354L2.05016 14.8674ZM9 25L8.17534 25.5656L9 26.7679L9.82466 25.5656L9 25ZM17 9.09091C17 11.047 16.3149 12.8376 15.1749 14.2354L16.7248 15.4995C18.1465 13.7562 19 11.5223 19 9.09091H17ZM9 1C13.4088 1 17 4.61292 17 9.09091H19C19 3.52735 14.5323 -1 9 -1V1ZM1 9.09091C1 4.61292 4.59117 1 9 1V-1C3.4677 -1 -1 3.52735 -1 9.09091H1ZM2.8251 14.2354C1.68505 12.8376 1 11.047 1 9.09091H-1C-1 11.5223 -0.146539 13.7562 1.27521 15.4995L2.8251 14.2354ZM9.82466 24.4344L2.87482 14.3018L1.2255 15.4331L8.17534 25.5656L9.82466 24.4344ZM15.1252 14.3018L8.17534 24.4344L9.82466 25.5656L16.7745 15.4331L15.1252 14.3018Z" fill="black" mask="url(#path-1-inside-1_367_92)"/>
<path d="M9 12.6212C10.9377 12.6212 12.5 11.0358 12.5 9.09085C12.5 7.14587 10.9377 5.56055 9 5.56055C7.06228 5.56055 5.5 7.14587 5.5 9.09085C5.5 11.0358 7.06228 12.6212 9 12.6212Z" fill="#F26D6D" stroke="black"/>
</svg>
