<svg width="28" height="28" viewBox="0 0 32 32" fill="none" xmlns="http://www.w3.org/2000/svg">
<path d="M16.3808 0C21.4118 0 26.0701 2.232 29.1591 5.9904C29.2471 6.09694 29.3128 6.22009 29.3522 6.35253C29.3916 6.48497 29.404 6.624 29.3887 6.76133C29.3733 6.89867 29.3305 7.03151 29.2627 7.15195C29.195 7.27239 29.1037 7.37797 28.9943 7.4624C28.7716 7.63696 28.4897 7.71789 28.2084 7.68802C27.9271 7.65815 27.6685 7.51983 27.4874 7.3024C26.1367 5.66596 24.4396 4.34981 22.5187 3.44891C20.5977 2.54801 18.5008 2.08484 16.3792 2.0928C8.51673 2.0928 2.14198 8.32 2.14198 16C2.14198 23.68 8.51673 29.9072 16.3792 29.9072C18.5314 29.9154 20.6578 29.4389 22.6007 28.5129C24.5436 27.587 26.2532 26.2354 27.6026 24.5584C27.7806 24.3387 28.0371 24.197 28.3178 24.1633C28.5985 24.1295 28.8813 24.2064 29.1063 24.3776C29.2166 24.4606 29.3092 24.5649 29.3784 24.6844C29.4476 24.8039 29.4921 24.936 29.5093 25.073C29.5265 25.21 29.5159 25.3491 29.4783 25.482C29.4406 25.6148 29.3767 25.7387 29.2902 25.8464C26.2061 29.7024 21.4854 32 16.3808 32C7.33136 32 0 24.8368 0 16C0 7.1632 7.33296 0 16.3808 0ZM27.3514 11.456L31.6802 15.7872C32.0993 16.2048 32.1073 16.8752 31.6994 17.2848L27.4698 21.5136C27.2691 21.71 26.9986 21.8187 26.7178 21.8157C26.4371 21.8127 26.169 21.6983 25.9725 21.4976C25.8728 21.4004 25.7933 21.2845 25.7384 21.1565C25.6836 21.0285 25.6545 20.8909 25.6529 20.7516C25.6512 20.6124 25.6771 20.4742 25.7289 20.3449C25.7807 20.2157 25.8575 20.0979 25.9549 19.9984L28.4296 17.5232H11.9369C11.7978 17.5249 11.6597 17.4992 11.5306 17.4475C11.4015 17.3958 11.2838 17.3192 11.1843 17.222C11.0847 17.1249 11.0053 17.009 10.9506 16.8812C10.8958 16.7533 10.8667 16.6159 10.8651 16.4768C10.8651 15.8976 11.345 15.4288 11.9369 15.4288H28.364L25.8717 12.936C25.6709 12.7397 25.5562 12.4717 25.5529 12.1908C25.5496 11.91 25.6579 11.6393 25.8541 11.4384C26.055 11.2422 26.3256 11.1338 26.6064 11.1371C26.8872 11.1404 27.1552 11.2551 27.3514 11.456Z" fill="white"/>
</svg>
