<svg width="75" height="45" viewBox="0 0 75 45" fill="none" xmlns="http://www.w3.org/2000/svg">
<rect width="75" height="45" rx="5" fill="white"/>
<path d="M12.0611 20.0895C11.9545 19.7443 11.8075 19.4354 11.62 19.1626C11.4368 18.8857 11.2152 18.6491 10.9553 18.4531C10.6996 18.2571 10.4055 18.1101 10.0732 18.0121C9.74077 17.9098 9.37855 17.8587 8.98651 17.8587C8.28338 17.8587 7.65696 18.0355 7.10724 18.3892C6.55753 18.7429 6.125 19.2628 5.80966 19.9489C5.49858 20.6307 5.34304 21.4616 5.34304 22.4418C5.34304 23.4304 5.49858 24.2678 5.80966 24.9538C6.12074 25.6399 6.55327 26.1619 7.10724 26.5199C7.66122 26.8736 8.30469 27.0504 9.03764 27.0504C9.70241 27.0504 10.2777 26.9226 10.7635 26.6669C11.2536 26.4112 11.6307 26.049 11.8949 25.5803C12.1591 25.1072 12.2912 24.5533 12.2912 23.9183L12.8281 24.0014H9.27415V22.1477H14.5859V23.7202C14.5859 24.8409 14.3473 25.8104 13.87 26.6286C13.3928 27.4467 12.7365 28.0774 11.9013 28.5206C11.0661 28.9595 10.1072 29.179 9.02486 29.179C7.81889 29.179 6.75994 28.9084 5.84801 28.3672C4.94034 27.8217 4.23082 27.0483 3.71946 26.0469C3.21236 25.0412 2.95881 23.848 2.95881 22.4673C2.95881 21.4105 3.10795 20.4666 3.40625 19.6357C3.70881 18.8047 4.13068 18.0994 4.67188 17.5199C5.21307 16.9361 5.84801 16.4929 6.5767 16.1903C7.3054 15.8835 8.09801 15.7301 8.95455 15.7301C9.67898 15.7301 10.3544 15.8366 10.9808 16.0497C11.6072 16.2585 12.1634 16.5568 12.6491 16.9446C13.1392 17.3324 13.5419 17.7926 13.8572 18.3253C14.1726 18.858 14.3793 19.446 14.4773 20.0895H12.0611ZM23.0346 24.8707V19.1818H25.3485V29H23.1049V27.255H23.0027C22.7811 27.8047 22.4167 28.2543 21.9096 28.6037C21.4068 28.9531 20.7868 29.1278 20.0495 29.1278C19.4061 29.1278 18.8372 28.9851 18.3429 28.6996C17.8528 28.4098 17.4693 27.9901 17.1923 27.4403C16.9153 26.8864 16.7768 26.2173 16.7768 25.4332V19.1818H19.0907V25.0753C19.0907 25.6974 19.2612 26.1918 19.6021 26.5582C19.943 26.9247 20.3904 27.108 20.9444 27.108C21.2853 27.108 21.6156 27.0249 21.9352 26.8587C22.2548 26.6925 22.5169 26.4453 22.7214 26.1172C22.9302 25.7848 23.0346 25.3693 23.0346 24.8707ZM30.5533 29.1982C29.9311 29.1982 29.3707 29.0874 28.8722 28.8658C28.3778 28.6399 27.9858 28.3075 27.696 27.8686C27.4105 27.4297 27.2678 26.8885 27.2678 26.245C27.2678 25.6911 27.37 25.233 27.5746 24.8707C27.7791 24.5085 28.0582 24.2188 28.4119 24.0014C28.7656 23.7841 29.1641 23.62 29.6072 23.5092C30.0547 23.3942 30.517 23.3111 30.9943 23.2599C31.5696 23.2003 32.0362 23.147 32.3942 23.1001C32.7521 23.049 33.0121 22.9723 33.174 22.87C33.3402 22.7635 33.4233 22.5994 33.4233 22.3778V22.3395C33.4233 21.858 33.2805 21.4851 32.995 21.2209C32.7095 20.9567 32.2983 20.8246 31.7614 20.8246C31.1946 20.8246 30.745 20.9482 30.4126 21.1953C30.0845 21.4425 29.8629 21.7344 29.7479 22.071L27.5874 21.7642C27.7578 21.1676 28.0391 20.669 28.4311 20.2685C28.8232 19.8636 29.3026 19.5611 29.8693 19.3608C30.4361 19.1562 31.0625 19.054 31.7486 19.054C32.2216 19.054 32.6925 19.1094 33.1612 19.2202C33.63 19.331 34.0582 19.5142 34.446 19.7699C34.8338 20.0213 35.1449 20.3643 35.3793 20.799C35.6179 21.2337 35.7372 21.777 35.7372 22.429V29H33.5128V27.6513H33.4361C33.2955 27.924 33.0973 28.1797 32.8416 28.4183C32.5902 28.6527 32.2727 28.8423 31.8892 28.9872C31.5099 29.1278 31.0646 29.1982 30.5533 29.1982ZM31.1541 27.4979C31.6186 27.4979 32.0213 27.4062 32.3622 27.223C32.7031 27.0355 32.9652 26.7884 33.1484 26.4815C33.3359 26.1747 33.4297 25.8402 33.4297 25.478V24.321C33.3572 24.3807 33.2337 24.4361 33.0589 24.4872C32.8885 24.5384 32.6967 24.5831 32.4837 24.6214C32.2706 24.6598 32.0597 24.6939 31.8509 24.7237C31.642 24.7536 31.4609 24.7791 31.3075 24.8004C30.9624 24.8473 30.6534 24.924 30.3807 25.0305C30.108 25.1371 29.8928 25.2862 29.7351 25.478C29.5774 25.6655 29.4986 25.9084 29.4986 26.2067C29.4986 26.6328 29.6541 26.9545 29.9652 27.1719C30.2763 27.3892 30.6726 27.4979 31.1541 27.4979ZM38.0639 29V19.1818H40.3075V20.8182H40.4098C40.5888 20.2514 40.8956 19.8146 41.3303 19.5078C41.7692 19.1967 42.2699 19.0412 42.8324 19.0412C42.9602 19.0412 43.103 19.0476 43.2607 19.0604C43.4226 19.0689 43.5568 19.0838 43.6634 19.1051V21.2337C43.5653 21.1996 43.4098 21.1697 43.1967 21.1442C42.9879 21.1143 42.7855 21.0994 42.5895 21.0994C42.1676 21.0994 41.7884 21.1911 41.4517 21.3743C41.1193 21.5533 40.8572 21.8026 40.6655 22.1222C40.4737 22.4418 40.3778 22.8104 40.3778 23.228V29H38.0639ZM48.4398 29.1726C47.6685 29.1726 46.9782 28.9744 46.3688 28.5781C45.7594 28.1818 45.2779 27.6065 44.9242 26.8523C44.5705 26.098 44.3936 25.1818 44.3936 24.1037C44.3936 23.0128 44.5726 22.0923 44.9306 21.3423C45.2928 20.5881 45.7807 20.0192 46.3944 19.6357C47.008 19.2479 47.6919 19.054 48.4462 19.054C49.0215 19.054 49.4945 19.152 49.8652 19.348C50.236 19.5398 50.53 19.772 50.7473 20.0447C50.9647 20.3132 51.133 20.5668 51.2523 20.8054H51.3482V15.9091H53.6685V29H51.3929V27.4531H51.2523C51.133 27.6918 50.9604 27.9453 50.7346 28.2138C50.5087 28.478 50.2104 28.7038 49.8397 28.8913C49.4689 29.0788 49.0023 29.1726 48.4398 29.1726ZM49.0854 27.2741C49.5755 27.2741 49.9931 27.142 50.3382 26.8778C50.6834 26.6094 50.9455 26.2365 51.1245 25.7592C51.3034 25.282 51.3929 24.7259 51.3929 24.0909C51.3929 23.456 51.3034 22.9041 51.1245 22.4354C50.9498 21.9666 50.6898 21.6023 50.3446 21.3423C50.0037 21.0824 49.584 20.9524 49.0854 20.9524C48.5698 20.9524 48.1394 21.0866 47.7942 21.3551C47.449 21.6236 47.1891 21.9943 47.0144 22.4673C46.8397 22.9403 46.7523 23.4815 46.7523 24.0909C46.7523 24.7045 46.8397 25.2521 47.0144 25.7337C47.1934 26.2109 47.4554 26.5881 47.8006 26.8651C48.15 27.1378 48.5783 27.2741 49.0854 27.2741ZM58.9595 29.1982C58.3374 29.1982 57.777 29.0874 57.2784 28.8658C56.7841 28.6399 56.392 28.3075 56.1023 27.8686C55.8168 27.4297 55.674 26.8885 55.674 26.245C55.674 25.6911 55.7763 25.233 55.9808 24.8707C56.1854 24.5085 56.4645 24.2188 56.8182 24.0014C57.1719 23.7841 57.5703 23.62 58.0135 23.5092C58.4609 23.3942 58.9233 23.3111 59.4006 23.2599C59.9759 23.2003 60.4425 23.147 60.8004 23.1001C61.1584 23.049 61.4183 22.9723 61.5803 22.87C61.7464 22.7635 61.8295 22.5994 61.8295 22.3778V22.3395C61.8295 21.858 61.6868 21.4851 61.4013 21.2209C61.1158 20.9567 60.7045 20.8246 60.1676 20.8246C59.6009 20.8246 59.1513 20.9482 58.8189 21.1953C58.4908 21.4425 58.2692 21.7344 58.1541 22.071L55.9936 21.7642C56.1641 21.1676 56.4453 20.669 56.8374 20.2685C57.2294 19.8636 57.7088 19.5611 58.2756 19.3608C58.8423 19.1562 59.4688 19.054 60.1548 19.054C60.6278 19.054 61.0987 19.1094 61.5675 19.2202C62.0362 19.331 62.4645 19.5142 62.8523 19.7699C63.2401 20.0213 63.5511 20.3643 63.7855 20.799C64.0241 21.2337 64.1435 21.777 64.1435 22.429V29H61.919V27.6513H61.8423C61.7017 27.924 61.5036 28.1797 61.2479 28.4183C60.9964 28.6527 60.679 28.8423 60.2955 28.9872C59.9162 29.1278 59.4709 29.1982 58.9595 29.1982ZM59.5604 27.4979C60.0249 27.4979 60.4276 27.4062 60.7685 27.223C61.1094 27.0355 61.3714 26.7884 61.5547 26.4815C61.7422 26.1747 61.8359 25.8402 61.8359 25.478V24.321C61.7635 24.3807 61.6399 24.4361 61.4652 24.4872C61.2947 24.5384 61.103 24.5831 60.8899 24.6214C60.6768 24.6598 60.4659 24.6939 60.2571 24.7237C60.0483 24.7536 59.8672 24.7791 59.7138 24.8004C59.3686 24.8473 59.0597 24.924 58.7869 25.0305C58.5142 25.1371 58.299 25.2862 58.1413 25.478C57.9837 25.6655 57.9048 25.9084 57.9048 26.2067C57.9048 26.6328 58.0604 26.9545 58.3714 27.1719C58.6825 27.3892 59.0788 27.4979 59.5604 27.4979ZM66.4702 29V19.1818H68.7138V20.8182H68.8161C68.995 20.2514 69.3018 19.8146 69.7365 19.5078C70.1754 19.1967 70.6761 19.0412 71.2386 19.0412C71.3665 19.0412 71.5092 19.0476 71.6669 19.0604C71.8288 19.0689 71.9631 19.0838 72.0696 19.1051V21.2337C71.9716 21.1996 71.8161 21.1697 71.603 21.1442C71.3942 21.1143 71.1918 21.0994 70.9957 21.0994C70.5739 21.0994 70.1946 21.1911 69.858 21.3743C69.5256 21.5533 69.2635 21.8026 69.0717 22.1222C68.88 22.4418 68.7841 22.8104 68.7841 23.228V29H66.4702Z" fill="#77D93B"/>
</svg>
