<svg width="42" height="35" viewBox="0 0 42 35" fill="none" xmlns="http://www.w3.org/2000/svg">
<path d="M7 7H10.5V28H7V7ZM12.25 7H14V28H12.25V7ZM15.75 7H21V28H15.75V7ZM22.75 7H24.5V28H22.75V7ZM28 7H31.5V28H28V7ZM33.25 7H35V28H33.25V7ZM3.5 3.5V10.5H0V3.5C0 2.57174 0.368749 1.6815 1.02513 1.02513C1.6815 0.368749 2.57174 0 3.5 0H10.5V3.5H3.5ZM38.5 0C39.4283 0 40.3185 0.368749 40.9749 1.02513C41.6312 1.6815 42 2.57174 42 3.5V10.5H38.5V3.5H31.5V0H38.5ZM3.5 24.5V31.5H10.5V35H3.5C2.57174 35 1.6815 34.6312 1.02513 33.9749C0.368749 33.3185 0 32.4283 0 31.5V24.5H3.5ZM38.5 31.5V24.5H42V31.5C42 32.4283 41.6312 33.3185 40.9749 33.9749C40.3185 34.6312 39.4283 35 38.5 35H31.5V31.5H38.5Z" fill="white"/>
</svg>
