<svg width="58" height="58" viewBox="0 0 58 58" fill="none" xmlns="http://www.w3.org/2000/svg">
<g filter="url(#filter0_d_167_187)">
<circle cx="29" cy="25" r="25" fill="white" fill-opacity="0.7" shape-rendering="crispEdges"/>
</g>
<path d="M29.5 25.875C34.1599 25.875 37.9375 22.0974 37.9375 17.4375C37.9375 12.7776 34.1599 9 29.5 9C24.8401 9 21.0625 12.7776 21.0625 17.4375C21.0625 22.0974 24.8401 25.875 29.5 25.875Z" stroke="#787878" stroke-width="3" stroke-linecap="round" stroke-linejoin="round"/>
<path d="M43 39.375C43 35.7946 41.5777 32.3608 39.0459 29.8291C36.5142 27.2973 33.0804 25.875 29.5 25.875C25.9196 25.875 22.4858 27.2973 19.9541 29.8291C17.4223 32.3608 16 35.7946 16 39.375" stroke="#787878" stroke-width="3" stroke-linecap="round" stroke-linejoin="round"/>
<defs>
<filter id="filter0_d_167_187" x="0" y="0" width="58" height="58" filterUnits="userSpaceOnUse" color-interpolation-filters="sRGB">
<feFlood flood-opacity="0" result="BackgroundImageFix"/>
<feColorMatrix in="SourceAlpha" type="matrix" values="0 0 0 0 0 0 0 0 0 0 0 0 0 0 0 0 0 0 127 0" result="hardAlpha"/>
<feOffset dy="4"/>
<feGaussianBlur stdDeviation="2"/>
<feComposite in2="hardAlpha" operator="out"/>
<feColorMatrix type="matrix" values="0 0 0 0 0 0 0 0 0 0 0 0 0 0 0 0 0 0 0.25 0"/>
<feBlend mode="normal" in2="BackgroundImageFix" result="effect1_dropShadow_167_187"/>
<feBlend mode="normal" in="SourceGraphic" in2="effect1_dropShadow_167_187" result="shape"/>
</filter>
</defs>
</svg>
